<svg version="1.1" id="Layer_1" xmlns="http://www.w3.org/2000/svg" xmlns:xlink="http://www.w3.org/1999/xlink" x="0px" y="0px"
	 width="100%" viewBox="0 0 496 496" enable-background="new 0 0 496 496" xml:space="preserve">
<path fill="#000000" opacity="1.000000" stroke="none" 
	d="
M155.788696,203.408630 
	C152.593597,205.385788 151.366791,204.028214 151.860733,201.144089 
	C154.383789,186.411926 157.094666,171.712006 159.647522,156.984787 
	C160.031784,154.768036 161.087448,153.749161 163.263138,153.740921 
	C164.762466,153.735245 166.261719,153.694443 167.761002,153.694397 
	C219.078873,153.692749 270.396912,153.751526 321.714355,153.603699 
	C326.687805,153.589386 328.988373,154.524765 329.722229,160.145416 
	C331.462250,173.472244 334.180725,186.670868 336.472321,199.926712 
	C336.754059,201.556427 338.299988,203.820297 335.434784,204.432175 
	C332.518066,205.055069 332.448181,202.291519 332.028137,200.503998 
	C330.148834,192.506195 327.524597,184.858276 322.873688,177.973480 
	C314.115417,165.008484 301.175629,159.740051 286.332062,158.455948 
	C278.885651,157.811768 271.342468,158.364563 263.850739,158.130478 
	C260.280518,158.018906 259.325928,159.488968 259.285614,162.857544 
	C259.160553,173.305939 259.062653,173.263641 268.576416,177.620590 
	C272.663086,179.492157 276.566864,181.780655 280.706390,183.515350 
	C288.772125,186.895355 292.347473,185.334564 295.497803,177.377121 
	C295.941620,176.256104 296.189056,175.026260 297.721558,175.190872 
	C299.493866,175.381241 299.667633,176.823593 299.674164,178.177628 
	C299.760956,196.156296 299.838715,214.135101 299.847809,232.113907 
	C299.848602,233.654861 300.199982,235.807037 297.846100,236.066269 
	C295.089630,236.369843 295.097412,234.008408 295.044739,232.297256 
	C294.737335,222.311142 292.533966,212.817764 287.666229,204.070450 
	C281.526581,193.037521 272.539185,185.393082 260.574249,181.491943 
	C258.825714,183.177094 259.380310,184.945358 259.377380,186.528214 
	C259.337341,208.188293 259.428833,229.849030 259.272522,251.508057 
	C259.246429,255.127731 260.474823,257.211578 263.493134,259.157837 
	C276.659119,267.647522 289.938202,276.135529 299.509521,288.911652 
	C312.059479,305.663727 313.617615,323.913361 304.504883,342.487823 
	C297.026917,357.730011 282.781464,363.071228 266.918854,365.377563 
	C248.394119,368.071014 230.823608,365.551392 214.086166,357.014984 
	C210.239777,355.053223 205.961746,353.970856 201.516266,354.394501 
	C197.467117,354.780365 194.041946,356.229736 192.581497,360.432159 
	C192.064865,361.918762 191.684052,363.457520 189.644974,363.007446 
	C187.682602,362.574310 187.860657,360.862640 187.782013,359.392181 
	C187.719818,358.228943 187.754883,357.060303 187.754578,355.894043 
	C187.748932,335.067017 187.744217,314.240021 187.740448,293.412994 
	C187.740189,291.913452 187.731247,290.413605 187.757889,288.914459 
	C187.788940,287.166290 187.936508,285.346649 190.316269,285.504944 
	C192.417984,285.644714 192.259369,287.423187 192.314575,288.910278 
	C192.673141,298.568176 193.748398,308.120361 196.318878,317.472046 
	C198.460602,325.263855 201.889160,332.428589 206.580429,338.995667 
	C209.618210,343.248077 213.317871,344.190674 220.283127,342.293640 
	C224.758362,341.074707 228.203613,338.653809 228.690323,333.578156 
	C228.960175,330.763855 229.088699,327.925690 229.093704,325.097961 
	C229.122009,309.102844 228.968353,293.106110 229.168472,277.113525 
	C229.221741,272.856903 227.990463,270.127014 224.395096,267.590576 
	C214.864395,260.866882 205.784744,253.560028 198.636765,244.138870 
	C178.829559,218.032684 188.313171,186.614044 219.300079,175.889008 
	C219.928848,175.671387 220.577438,175.511658 221.213821,175.315338 
	C229.127274,172.874161 231.174423,169.276733 229.537476,161.011993 
	C229.184937,159.232056 228.329132,158.278946 226.580795,158.301453 
	C214.301666,158.459366 201.932816,157.063721 189.860550,160.671310 
	C171.679031,166.104538 162.141296,179.252380 157.430161,196.752747 
	C156.868576,198.838882 156.466965,200.968109 155.788696,203.408630 
M282.802307,332.231659 
	C284.125305,314.245911 272.577179,303.947113 260.276825,293.415833 
	C259.787506,294.583313 259.452484,295.011078 259.451080,295.439972 
	C259.411499,307.399384 259.172882,319.364990 259.483154,331.316132 
	C259.664459,338.300690 264.320068,342.291626 271.519348,342.698029 
	C274.086609,342.842926 276.789398,342.315308 278.951294,344.477509 
	C281.263000,340.891998 282.685516,337.241852 282.802307,332.231659 
M273.003113,351.607208 
	C274.037994,350.470123 275.939758,349.906708 275.635712,347.891418 
	C255.764893,347.891418 236.016235,347.891418 215.674316,347.891418 
	C230.390976,361.451294 260.310425,361.656677 273.003113,351.607208 
M227.769318,230.856567 
	C230.992844,230.409241 229.466995,227.804214 229.486252,226.348984 
	C229.655884,213.531219 229.599136,200.710220 229.564758,187.890320 
	C229.560883,186.444153 229.935577,184.867233 228.390869,183.238983 
	C223.280182,186.103806 219.906708,190.394562 218.479263,196.071091 
	C215.204376,209.094345 219.390854,220.282394 227.769318,230.856567 
z"/>
<path fill="#000000" opacity="1.000000" stroke="none" 
	d="
M322.425873,415.922913 
	C323.155457,417.312073 324.432617,418.158661 323.884979,419.900421 
	C320.454437,420.869965 320.213043,416.578278 317.702759,416.039856 
	C315.551544,416.406311 316.995850,419.190735 315.063080,419.880920 
	C312.868042,419.447968 313.287994,417.527863 313.267670,416.015381 
	C313.238831,413.868561 313.310333,411.694977 313.628113,409.576233 
	C313.935547,407.526520 312.420441,404.462402 315.811768,403.850342 
	C318.519745,403.361603 321.611023,402.918610 323.553436,405.723328 
	C325.295013,408.238037 324.744293,410.762909 322.817902,412.986145 
	C322.093048,413.822723 321.725677,414.610840 322.425873,415.922913 
M316.771179,410.589905 
	C318.927460,412.361084 320.502228,411.477600 321.320160,409.270844 
	C321.880676,407.758759 320.724152,406.712006 319.270752,406.542175 
	C316.704620,406.242432 316.242676,407.875977 316.771179,410.589905 
z"/>
<path fill="#000000" opacity="1.000000" stroke="none" 
	d="
M245.312943,414.475098 
	C245.757065,418.972839 243.191162,420.546448 239.694611,420.849640 
	C236.644928,421.114105 233.812866,420.504517 233.049042,416.417572 
	C236.230316,415.569061 239.314438,420.245239 242.270859,416.152893 
	C241.353394,413.305389 238.450745,413.433807 236.370071,412.409729 
	C234.038696,411.262207 232.484100,409.636200 233.278702,406.925598 
	C234.217438,403.723267 236.943253,403.454163 239.732315,403.545990 
	C242.134232,403.625092 244.364960,403.922729 244.244278,407.357239 
	C241.621201,408.194092 239.126801,404.478333 236.641800,407.618713 
	C238.116425,411.626923 243.832169,410.155945 245.312943,414.475098 
z"/>
<path fill="#000000" opacity="1.000000" stroke="none" 
	d="
M197.594742,417.545410 
	C199.854507,417.076355 200.846878,414.596008 203.188461,415.146332 
	C202.684158,419.085907 200.386200,421.035400 196.459900,420.901733 
	C192.106827,420.753601 188.211716,416.983765 187.939789,412.655762 
	C187.687256,408.636078 190.741684,404.406738 194.384766,403.731720 
	C199.279434,402.824799 202.129761,404.393555 203.494934,409.302490 
	C199.045822,407.956207 193.650055,402.968658 191.459702,410.917725 
	C190.366379,414.885559 192.747986,417.577240 197.594742,417.545410 
z"/>
<path fill="#000000" opacity="1.000000" stroke="none" 
	d="
M337.818665,417.483459 
	C339.830383,417.977386 341.873322,417.006378 343.415527,419.373047 
	C340.058441,420.924011 336.846466,421.028137 333.801575,419.336182 
	C332.432404,418.575378 332.212585,405.923553 333.595917,404.871185 
	C336.599060,402.586517 339.929016,403.466003 343.292328,404.314117 
	C342.714325,406.801147 340.938873,406.144623 339.608704,406.313751 
	C338.147827,406.499512 336.397858,406.227722 336.443909,408.468384 
	C336.481293,410.284943 337.959259,410.338196 339.279541,410.568512 
	C340.505310,410.782257 342.014465,410.276367 342.730682,411.759186 
	C342.801697,415.417480 334.089691,410.645264 337.818665,417.483459 
z"/>
<path fill="#000000" opacity="1.000000" stroke="none" 
	d="
M284.402649,407.730377 
	C284.067993,412.022278 284.952789,415.988434 283.714874,420.195435 
	C280.117828,419.006592 283.451508,413.643860 279.168457,413.419830 
	C274.331604,413.166870 277.271057,418.530823 273.507050,420.323059 
	C272.290253,414.675598 272.454193,409.504303 273.380798,404.051453 
	C277.527954,404.892700 274.240570,410.469696 278.613770,410.581329 
	C283.560791,410.707611 280.223267,405.376251 282.948700,404.087372 
	C284.959229,404.527679 284.155731,406.152954 284.402649,407.730377 
z"/>
<path fill="#000000" opacity="1.000000" stroke="none" 
	d="
M224.343262,413.882690 
	C224.031998,416.191315 224.982132,418.353485 223.001389,419.861145 
	C219.498398,419.089081 222.745453,413.462097 218.299759,413.462738 
	C213.926651,413.463379 216.354263,418.151398 213.366287,420.343018 
	C212.268448,414.416290 212.368347,409.298920 213.173416,403.587738 
	C216.949158,405.398560 213.386658,410.832214 218.399170,410.534698 
	C222.718719,410.278320 220.118362,405.624512 222.952759,403.789978 
	C225.509125,406.725708 223.766327,410.307220 224.343262,413.882690 
z"/>
<path fill="#000000" opacity="1.000000" stroke="none" 
	d="
M293.650635,414.856201 
	C293.645081,413.045380 293.636475,411.713593 293.636475,410.381805 
	C293.636505,403.250275 296.501068,401.642761 303.569031,404.896759 
	C302.608582,406.902588 300.712463,406.089294 299.228271,406.317932 
	C297.823364,406.534393 296.463928,406.701721 296.582703,408.539337 
	C296.675079,409.968658 297.801453,410.331604 299.024506,410.580200 
	C300.521576,410.884460 302.408752,410.017029 303.484955,411.983276 
	C302.518707,414.027344 300.610504,413.136688 299.133728,413.413116 
	C297.912598,413.641724 296.720062,413.912354 296.665894,415.372589 
	C296.612366,416.815308 297.772308,417.259460 298.965790,417.548279 
	C300.607941,417.945648 302.708252,417.104156 303.819977,419.219086 
	C297.974304,422.337067 294.109344,420.816864 293.650635,414.856201 
z"/>
<path fill="#000000" opacity="1.000000" stroke="none" 
	d="
M177.228882,403.758789 
	C179.622070,405.810791 177.896774,405.991302 176.429352,406.354462 
	C174.712601,406.779327 171.703323,405.243896 171.673615,408.310059 
	C171.641922,411.582123 174.882538,410.173645 176.724716,410.752228 
	C177.326645,410.941315 177.905182,411.204895 178.461212,411.421478 
	C178.323425,413.652527 176.710648,413.255707 175.502655,413.362946 
	C173.864395,413.508331 171.783066,413.192627 171.666229,415.483826 
	C171.540741,417.944733 173.703384,417.545135 175.302322,417.700409 
	C176.566956,417.823181 178.027237,417.474396 178.976929,419.374969 
	C175.905426,421.024231 171.477539,421.544403 169.978775,419.602142 
	C166.982834,415.719757 168.209442,410.235229 169.100311,405.710999 
	C169.855133,401.877594 174.135147,404.207123 177.228882,403.758789 
z"/>
<path fill="#000000" opacity="1.000000" stroke="none" 
	d="
M256.956635,403.679199 
	C260.753052,403.495178 264.185150,403.815033 264.777161,407.803528 
	C265.363159,411.751068 262.840240,414.109375 259.011566,414.396210 
	C255.075165,414.691132 257.390503,418.631897 255.430374,419.977448 
	C252.269852,416.157867 252.992889,405.674042 256.956635,403.679199 
M256.558289,407.553314 
	C256.289764,409.456573 256.116455,411.441132 258.842865,411.399872 
	C260.491547,411.374939 261.855316,410.203918 261.511749,408.523438 
	C260.932800,405.691925 258.822205,406.338928 256.558289,407.553314 
z"/>
<path fill="#000000" opacity="1.000000" stroke="none" 
	d="
M156.275726,419.873352 
	C152.591583,417.732483 154.202805,414.316254 154.152924,411.447479 
	C154.104919,408.685974 154.233047,406.235291 150.234512,405.081757 
	C154.244400,402.975677 157.377747,403.421753 161.697388,404.471313 
	C156.769913,406.805725 157.428650,410.499054 157.312668,414.001862 
	C157.248993,415.924866 157.914719,417.975586 156.275726,419.873352 
z"/>
</svg>